<svg width="20" height="20" viewBox="0 0 20 20" fill="none" xmlns="http://www.w3.org/2000/svg">
<g clip-path="url(#clip0_117_872)">
<path d="M18.599 3.69251L7.08321 15.2075C7.00579 15.2852 6.91378 15.3469 6.81246 15.389C6.71114 15.4311 6.60251 15.4527 6.4928 15.4527C6.38308 15.4527 6.27445 15.4311 6.17313 15.389C6.07182 15.3469 5.9798 15.2852 5.90238 15.2075L1.44905 10.75C1.37162 10.6723 1.27961 10.6106 1.17829 10.5685C1.07697 10.5264 0.968341 10.5048 0.85863 10.5048C0.748918 10.5048 0.640287 10.5264 0.538968 10.5685C0.437649 10.6106 0.345638 10.6723 0.268213 10.75V10.75C0.190482 10.8274 0.128805 10.9194 0.0867207 11.0208C0.044636 11.1221 0.0229721 11.2307 0.0229721 11.3404C0.0229721 11.4501 0.044636 11.5588 0.0867207 11.6601C0.128805 11.7614 0.190482 11.8534 0.268213 11.9308L4.72321 16.385C5.19317 16.8541 5.83004 17.1175 6.49405 17.1175C7.15805 17.1175 7.79492 16.8541 8.26488 16.385L19.7799 4.87251C19.8575 4.7951 19.9191 4.70314 19.9611 4.6019C20.0031 4.50065 20.0247 4.39212 20.0247 4.28251C20.0247 4.17289 20.0031 4.06436 19.9611 3.96312C19.9191 3.86188 19.8575 3.76992 19.7799 3.69251C19.7025 3.61478 19.6104 3.5531 19.5091 3.51101C19.4078 3.46893 19.2992 3.44727 19.1895 3.44727C19.0798 3.44727 18.9711 3.46893 18.8698 3.51101C18.7685 3.5531 18.6765 3.61478 18.599 3.69251Z" fill="white"/>
</g>
<defs>
<clipPath id="clip0_117_872">
<rect width="20" height="20" fill="white"/>
</clipPath>
</defs>
</svg>
