<svg width="38" height="38" viewBox="0 0 38 38" fill="none" xmlns="http://www.w3.org/2000/svg">
<path d="M21.704 15.3688L18.0735 18.9993L21.704 22.6299C22.3231 23.249 22.3231 24.2497 21.704 24.8688C21.3953 25.1776 20.99 25.3327 20.5846 25.3327C20.1793 25.3327 19.774 25.1776 19.4653 24.8688L14.7153 20.1188C14.0962 19.4997 14.0962 18.499 14.7153 17.8799L19.4653 13.1299C20.0843 12.5108 21.0849 12.5108 21.704 13.1299C22.3231 13.749 22.3231 14.7497 21.704 15.3688ZM34.8346 18.9993C34.8346 27.7298 27.7318 34.8327 19.0013 34.8327C10.2708 34.8327 3.16797 27.7298 3.16797 18.9993C3.16797 10.2688 10.2708 3.16602 19.0013 3.16602C27.7318 3.16602 34.8346 10.2688 34.8346 18.9993ZM31.668 18.9993C31.668 12.0153 25.9854 6.33268 19.0013 6.33268C12.0172 6.33268 6.33464 12.0153 6.33464 18.9993C6.33464 25.9834 12.0172 31.666 19.0013 31.666C25.9854 31.666 31.668 25.9834 31.668 18.9993Z" fill="white"/>
</svg>
