<svg width="24" height="24" viewBox="0 0 24 24" fill="none" xmlns="http://www.w3.org/2000/svg">
<path d="M16.875 6H3.75C3.45163 6 3.16548 6.11853 2.9545 6.3295C2.74353 6.54048 2.625 6.82663 2.625 7.125V20.25C2.625 20.5484 2.74353 20.8345 2.9545 21.0455C3.16548 21.2565 3.45163 21.375 3.75 21.375H16.875C17.1734 21.375 17.4595 21.2565 17.6705 21.0455C17.8815 20.8345 18 20.5484 18 20.25V7.125C18 6.82663 17.8815 6.54048 17.6705 6.3295C17.4595 6.11853 17.1734 6 16.875 6ZM15.75 19.125H4.875V8.25H15.75V19.125ZM21.375 3.75V16.875C21.375 17.1734 21.2565 17.4595 21.0455 17.6705C20.8345 17.8815 20.5484 18 20.25 18C19.9516 18 19.6655 17.8815 19.4545 17.6705C19.2435 17.4595 19.125 17.1734 19.125 16.875V4.875H7.125C6.82663 4.875 6.54048 4.75647 6.3295 4.5455C6.11853 4.33452 6 4.04837 6 3.75C6 3.45163 6.11853 3.16548 6.3295 2.9545C6.54048 2.74353 6.82663 2.625 7.125 2.625H20.25C20.5484 2.625 20.8345 2.74353 21.0455 2.9545C21.2565 3.16548 21.375 3.45163 21.375 3.75Z" fill="white"/>
</svg>
