<svg width="30" height="30" viewBox="0 0 30 30" fill="none" xmlns="http://www.w3.org/2000/svg">
<path d="M22.5 2.5H7.5C6.50544 2.5 5.55161 2.89509 4.84835 3.59835C4.14509 4.30161 3.75 5.25544 3.75 6.25V23.75C3.75 24.7446 4.14509 25.6984 4.84835 26.4017C5.55161 27.1049 6.50544 27.5 7.5 27.5H22.5C23.4946 27.5 24.4484 27.1049 25.1517 26.4017C25.8549 25.6984 26.25 24.7446 26.25 23.75V6.25C26.25 5.25544 25.8549 4.30161 25.1517 3.59835C24.4484 2.89509 23.4946 2.5 22.5 2.5ZM22.5 25H7.5C7.16848 25 6.85054 24.8683 6.61612 24.6339C6.3817 24.3995 6.25 24.0815 6.25 23.75V20H8.75C9.08152 20 9.39946 19.8683 9.63388 19.6339C9.8683 19.3995 10 19.0815 10 18.75C10 18.4185 9.8683 18.1005 9.63388 17.8661C9.39946 17.6317 9.08152 17.5 8.75 17.5H6.25V12.5H8.75C9.08152 12.5 9.39946 12.3683 9.63388 12.1339C9.8683 11.8995 10 11.5815 10 11.25C10 10.9185 9.8683 10.6005 9.63388 10.3661C9.39946 10.1317 9.08152 10 8.75 10H6.25V6.25C6.25 5.91848 6.3817 5.60054 6.61612 5.36612C6.85054 5.1317 7.16848 5 7.5 5H22.5C22.8315 5 23.1495 5.1317 23.3839 5.36612C23.6183 5.60054 23.75 5.91848 23.75 6.25V10H15C14.6685 10 14.3505 10.1317 14.1161 10.3661C13.8817 10.6005 13.75 10.9185 13.75 11.25C13.75 11.5815 13.8817 11.8995 14.1161 12.1339C14.3505 12.3683 14.6685 12.5 15 12.5H23.75V17.5H15C14.6685 17.5 14.3505 17.6317 14.1161 17.8661C13.8817 18.1005 13.75 18.4185 13.75 18.75C13.75 19.0815 13.8817 19.3995 14.1161 19.6339C14.3505 19.8683 14.6685 20 15 20H23.75V23.75C23.75 24.0815 23.6183 24.3995 23.3839 24.6339C23.1495 24.8683 22.8315 25 22.5 25Z" fill="white"/>
</svg>
