<svg width="625" height="269" viewBox="0 0 625 269" fill="none" xmlns="http://www.w3.org/2000/svg">
<mask id="path-1-inside-1_76_1971" fill="white">
<path d="M0 25.5774C0 11.4514 11.4514 0 25.5774 0H599.423C613.549 0 625 11.4514 625 25.5774V243.423C625 257.549 613.549 269 599.423 269H25.5774C11.4514 269 0 257.549 0 243.423V25.5774Z"/>
</mask>
<path d="M0 25.5774C0 11.4514 11.4514 0 25.5774 0H599.423C613.549 0 625 11.4514 625 25.5774V243.423C625 257.549 613.549 269 599.423 269H25.5774C11.4514 269 0 257.549 0 243.423V25.5774Z" fill="#1C1C1C"/>
<path d="M0 25.5774C0 -5.11714 24.8829 -30 55.5774 -30H569.423C600.117 -30 625 -5.11714 625 25.5774V30C625 30 613.549 30 599.423 30H25.5774C11.4514 30 0 30 0 30V25.5774ZM625 269H0H625ZM0 269V0V269ZM625 0V269V0Z" fill="#454545" mask="url(#path-1-inside-1_76_1971)"/>
<path d="M91.0602 208.36C88.0802 208.36 85.7502 207.53 84.0702 205.87C82.3902 204.21 81.5502 201.84 81.5502 198.76V187H86.4102V198.58C86.4102 200.58 86.8202 202.02 87.6402 202.9C88.4602 203.78 89.6102 204.22 91.0902 204.22C92.5702 204.22 93.7202 203.78 94.5402 202.9C95.3602 202.02 95.7702 200.58 95.7702 198.58V187H100.57V198.76C100.57 201.84 99.7302 204.21 98.0502 205.87C96.3702 207.53 94.0402 208.36 91.0602 208.36ZM114.853 191.62C116.133 191.62 117.273 191.88 118.273 192.4C119.293 192.9 120.093 193.68 120.673 194.74C121.253 195.78 121.543 197.12 121.543 198.76V208H116.863V199.48C116.863 198.18 116.573 197.22 115.993 196.6C115.433 195.98 114.633 195.67 113.593 195.67C112.853 195.67 112.183 195.83 111.583 196.15C111.003 196.45 110.543 196.92 110.203 197.56C109.883 198.2 109.723 199.02 109.723 200.02V208H105.043V191.86H109.513V196.33L108.673 194.98C109.253 193.9 110.083 193.07 111.163 192.49C112.243 191.91 113.473 191.62 114.853 191.62ZM135.685 208V204.85L135.385 204.16V198.52C135.385 197.52 135.075 196.74 134.455 196.18C133.855 195.62 132.925 195.34 131.665 195.34C130.805 195.34 129.955 195.48 129.115 195.76C128.295 196.02 127.595 196.38 127.015 196.84L125.335 193.57C126.215 192.95 127.275 192.47 128.515 192.13C129.755 191.79 131.015 191.62 132.295 191.62C134.755 191.62 136.665 192.2 138.025 193.36C139.385 194.52 140.065 196.33 140.065 198.79V208H135.685ZM130.765 208.24C129.505 208.24 128.425 208.03 127.525 207.61C126.625 207.17 125.935 206.58 125.455 205.84C124.975 205.1 124.735 204.27 124.735 203.35C124.735 202.39 124.965 201.55 125.425 200.83C125.905 200.11 126.655 199.55 127.675 199.15C128.695 198.73 130.025 198.52 131.665 198.52H135.955V201.25H132.175C131.075 201.25 130.315 201.43 129.895 201.79C129.495 202.15 129.295 202.6 129.295 203.14C129.295 203.74 129.525 204.22 129.985 204.58C130.465 204.92 131.115 205.09 131.935 205.09C132.715 205.09 133.415 204.91 134.035 204.55C134.655 204.17 135.105 203.62 135.385 202.9L136.105 205.06C135.765 206.1 135.145 206.89 134.245 207.43C133.345 207.97 132.185 208.24 130.765 208.24ZM153.841 208.24C152.421 208.24 151.201 207.94 150.181 207.34C149.161 206.74 148.381 205.83 147.841 204.61C147.301 203.37 147.031 201.81 147.031 199.93C147.031 198.03 147.311 196.47 147.871 195.25C148.451 194.03 149.251 193.12 150.271 192.52C151.291 191.92 152.481 191.62 153.841 191.62C155.361 191.62 156.721 191.96 157.921 192.64C159.141 193.32 160.101 194.28 160.801 195.52C161.521 196.76 161.881 198.23 161.881 199.93C161.881 201.61 161.521 203.07 160.801 204.31C160.101 205.55 159.141 206.52 157.921 207.22C156.721 207.9 155.361 208.24 153.841 208.24ZM144.301 208V185.74H148.981V195.13L148.681 199.9L148.771 204.7V208H144.301ZM153.031 204.4C153.811 204.4 154.501 204.22 155.101 203.86C155.721 203.5 156.211 202.99 156.571 202.33C156.951 201.65 157.141 200.85 157.141 199.93C157.141 198.99 156.951 198.19 156.571 197.53C156.211 196.87 155.721 196.36 155.101 196C154.501 195.64 153.811 195.46 153.031 195.46C152.251 195.46 151.551 195.64 150.931 196C150.311 196.36 149.821 196.87 149.461 197.53C149.101 198.19 148.921 198.99 148.921 199.93C148.921 200.85 149.101 201.65 149.461 202.33C149.821 202.99 150.311 203.5 150.931 203.86C151.551 204.22 152.251 204.4 153.031 204.4ZM165.014 208V185.74H169.694V208H165.014ZM182.047 208.24C180.207 208.24 178.587 207.88 177.187 207.16C175.807 206.44 174.737 205.46 173.977 204.22C173.217 202.96 172.837 201.53 172.837 199.93C172.837 198.31 173.207 196.88 173.947 195.64C174.707 194.38 175.737 193.4 177.037 192.7C178.337 191.98 179.807 191.62 181.447 191.62C183.027 191.62 184.447 191.96 185.707 192.64C186.987 193.3 187.997 194.26 188.737 195.52C189.477 196.76 189.847 198.25 189.847 199.99C189.847 200.17 189.837 200.38 189.817 200.62C189.797 200.84 189.777 201.05 189.757 201.25H176.647V198.52H187.297L185.497 199.33C185.497 198.49 185.327 197.76 184.987 197.14C184.647 196.52 184.177 196.04 183.577 195.7C182.977 195.34 182.277 195.16 181.477 195.16C180.677 195.16 179.967 195.34 179.347 195.7C178.747 196.04 178.277 196.53 177.937 197.17C177.597 197.79 177.427 198.53 177.427 199.39V200.11C177.427 200.99 177.617 201.77 177.997 202.45C178.397 203.11 178.947 203.62 179.647 203.98C180.367 204.32 181.207 204.49 182.167 204.49C183.027 204.49 183.777 204.36 184.417 204.1C185.077 203.84 185.677 203.45 186.217 202.93L188.707 205.63C187.967 206.47 187.037 207.12 185.917 207.58C184.797 208.02 183.507 208.24 182.047 208.24ZM208.059 208.24C206.159 208.24 204.679 207.76 203.619 206.8C202.559 205.82 202.029 204.37 202.029 202.45V188.29H206.709V202.39C206.709 203.07 206.889 203.6 207.249 203.98C207.609 204.34 208.099 204.52 208.719 204.52C209.459 204.52 210.089 204.32 210.609 203.92L211.869 207.22C211.389 207.56 210.809 207.82 210.129 208C209.469 208.16 208.779 208.24 208.059 208.24ZM199.539 195.82V192.22H210.729V195.82H199.539ZM221.678 208.24C219.958 208.24 218.428 207.88 217.088 207.16C215.768 206.44 214.718 205.46 213.938 204.22C213.178 202.96 212.798 201.53 212.798 199.93C212.798 198.31 213.178 196.88 213.938 195.64C214.718 194.38 215.768 193.4 217.088 192.7C218.428 191.98 219.958 191.62 221.678 191.62C223.378 191.62 224.898 191.98 226.238 192.7C227.578 193.4 228.628 194.37 229.388 195.61C230.148 196.85 230.528 198.29 230.528 199.93C230.528 201.53 230.148 202.96 229.388 204.22C228.628 205.46 227.578 206.44 226.238 207.16C224.898 207.88 223.378 208.24 221.678 208.24ZM221.678 204.4C222.458 204.4 223.158 204.22 223.778 203.86C224.398 203.5 224.888 202.99 225.248 202.33C225.608 201.65 225.788 200.85 225.788 199.93C225.788 198.99 225.608 198.19 225.248 197.53C224.888 196.87 224.398 196.36 223.778 196C223.158 195.64 222.458 195.46 221.678 195.46C220.898 195.46 220.198 195.64 219.578 196C218.958 196.36 218.458 196.87 218.078 197.53C217.718 198.19 217.538 198.99 217.538 199.93C217.538 200.85 217.718 201.65 218.078 202.33C218.458 202.99 218.958 203.5 219.578 203.86C220.198 204.22 220.898 204.4 221.678 204.4ZM252.052 208V204.85L251.752 204.16V198.52C251.752 197.52 251.442 196.74 250.822 196.18C250.222 195.62 249.292 195.34 248.032 195.34C247.172 195.34 246.322 195.48 245.482 195.76C244.662 196.02 243.962 196.38 243.382 196.84L241.702 193.57C242.582 192.95 243.642 192.47 244.882 192.13C246.122 191.79 247.382 191.62 248.662 191.62C251.122 191.62 253.032 192.2 254.392 193.36C255.752 194.52 256.432 196.33 256.432 198.79V208H252.052ZM247.132 208.24C245.872 208.24 244.792 208.03 243.892 207.61C242.992 207.17 242.302 206.58 241.822 205.84C241.342 205.1 241.102 204.27 241.102 203.35C241.102 202.39 241.332 201.55 241.792 200.83C242.272 200.11 243.022 199.55 244.042 199.15C245.062 198.73 246.392 198.52 248.032 198.52H252.322V201.25H248.542C247.442 201.25 246.682 201.43 246.262 201.79C245.862 202.15 245.662 202.6 245.662 203.14C245.662 203.74 245.892 204.22 246.352 204.58C246.832 204.92 247.482 205.09 248.302 205.09C249.082 205.09 249.782 204.91 250.402 204.55C251.022 204.17 251.472 203.62 251.752 202.9L252.472 205.06C252.132 206.1 251.512 206.89 250.612 207.43C249.712 207.97 248.552 208.24 247.132 208.24ZM268.585 208.24C266.845 208.24 265.295 207.89 263.935 207.19C262.575 206.47 261.505 205.48 260.725 204.22C259.965 202.96 259.585 201.53 259.585 199.93C259.585 198.31 259.965 196.88 260.725 195.64C261.505 194.38 262.575 193.4 263.935 192.7C265.295 191.98 266.845 191.62 268.585 191.62C270.285 191.62 271.765 191.98 273.025 192.7C274.285 193.4 275.215 194.41 275.815 195.73L272.185 197.68C271.765 196.92 271.235 196.36 270.595 196C269.975 195.64 269.295 195.46 268.555 195.46C267.755 195.46 267.035 195.64 266.395 196C265.755 196.36 265.245 196.87 264.865 197.53C264.505 198.19 264.325 198.99 264.325 199.93C264.325 200.87 264.505 201.67 264.865 202.33C265.245 202.99 265.755 203.5 266.395 203.86C267.035 204.22 267.755 204.4 268.555 204.4C269.295 204.4 269.975 204.23 270.595 203.89C271.235 203.53 271.765 202.96 272.185 202.18L275.815 204.16C275.215 205.46 274.285 206.47 273.025 207.19C271.765 207.89 270.285 208.24 268.585 208.24ZM286.105 208.24C284.365 208.24 282.815 207.89 281.455 207.19C280.095 206.47 279.025 205.48 278.245 204.22C277.485 202.96 277.105 201.53 277.105 199.93C277.105 198.31 277.485 196.88 278.245 195.64C279.025 194.38 280.095 193.4 281.455 192.7C282.815 191.98 284.365 191.62 286.105 191.62C287.805 191.62 289.285 191.98 290.545 192.7C291.805 193.4 292.735 194.41 293.335 195.73L289.705 197.68C289.285 196.92 288.755 196.36 288.115 196C287.495 195.64 286.815 195.46 286.075 195.46C285.275 195.46 284.555 195.64 283.915 196C283.275 196.36 282.765 196.87 282.385 197.53C282.025 198.19 281.845 198.99 281.845 199.93C281.845 200.87 282.025 201.67 282.385 202.33C282.765 202.99 283.275 203.5 283.915 203.86C284.555 204.22 285.275 204.4 286.075 204.4C286.815 204.4 287.495 204.23 288.115 203.89C288.755 203.53 289.285 202.96 289.705 202.18L293.335 204.16C292.735 205.46 291.805 206.47 290.545 207.19C289.285 207.89 287.805 208.24 286.105 208.24ZM303.834 208.24C301.994 208.24 300.374 207.88 298.974 207.16C297.594 206.44 296.524 205.46 295.764 204.22C295.004 202.96 294.624 201.53 294.624 199.93C294.624 198.31 294.994 196.88 295.734 195.64C296.494 194.38 297.524 193.4 298.824 192.7C300.124 191.98 301.594 191.62 303.234 191.62C304.814 191.62 306.234 191.96 307.494 192.64C308.774 193.3 309.784 194.26 310.524 195.52C311.264 196.76 311.634 198.25 311.634 199.99C311.634 200.17 311.624 200.38 311.604 200.62C311.584 200.84 311.564 201.05 311.544 201.25H298.434V198.52H309.084L307.284 199.33C307.284 198.49 307.114 197.76 306.774 197.14C306.434 196.52 305.964 196.04 305.364 195.7C304.764 195.34 304.064 195.16 303.264 195.16C302.464 195.16 301.754 195.34 301.134 195.7C300.534 196.04 300.064 196.53 299.724 197.17C299.384 197.79 299.214 198.53 299.214 199.39V200.11C299.214 200.99 299.404 201.77 299.784 202.45C300.184 203.11 300.734 203.62 301.434 203.98C302.154 204.32 302.994 204.49 303.954 204.49C304.814 204.49 305.564 204.36 306.204 204.1C306.864 203.84 307.464 203.45 308.004 202.93L310.494 205.63C309.754 206.47 308.824 207.12 307.704 207.58C306.584 208.02 305.294 208.24 303.834 208.24ZM320.18 208.24C318.8 208.24 317.47 208.08 316.19 207.76C314.93 207.42 313.93 207 313.19 206.5L314.75 203.14C315.49 203.6 316.36 203.98 317.36 204.28C318.38 204.56 319.38 204.7 320.36 204.7C321.44 204.7 322.2 204.57 322.64 204.31C323.1 204.05 323.33 203.69 323.33 203.23C323.33 202.85 323.15 202.57 322.79 202.39C322.45 202.19 321.99 202.04 321.41 201.94C320.83 201.84 320.19 201.74 319.49 201.64C318.81 201.54 318.12 201.41 317.42 201.25C316.72 201.07 316.08 200.81 315.5 200.47C314.92 200.13 314.45 199.67 314.09 199.09C313.75 198.51 313.58 197.76 313.58 196.84C313.58 195.82 313.87 194.92 314.45 194.14C315.05 193.36 315.91 192.75 317.03 192.31C318.15 191.85 319.49 191.62 321.05 191.62C322.15 191.62 323.27 191.74 324.41 191.98C325.55 192.22 326.5 192.57 327.26 193.03L325.7 196.36C324.92 195.9 324.13 195.59 323.33 195.43C322.55 195.25 321.79 195.16 321.05 195.16C320.01 195.16 319.25 195.3 318.77 195.58C318.29 195.86 318.05 196.22 318.05 196.66C318.05 197.06 318.22 197.36 318.56 197.56C318.92 197.76 319.39 197.92 319.97 198.04C320.55 198.16 321.18 198.27 321.86 198.37C322.56 198.45 323.26 198.58 323.96 198.76C324.66 198.94 325.29 199.2 325.85 199.54C326.43 199.86 326.9 200.31 327.26 200.89C327.62 201.45 327.8 202.19 327.8 203.11C327.8 204.11 327.5 205 326.9 205.78C326.3 206.54 325.43 207.14 324.29 207.58C323.17 208.02 321.8 208.24 320.18 208.24ZM336.117 208.24C334.737 208.24 333.407 208.08 332.127 207.76C330.867 207.42 329.867 207 329.127 206.5L330.687 203.14C331.427 203.6 332.297 203.98 333.297 204.28C334.317 204.56 335.317 204.7 336.297 204.7C337.377 204.7 338.137 204.57 338.577 204.31C339.037 204.05 339.267 203.69 339.267 203.23C339.267 202.85 339.087 202.57 338.727 202.39C338.387 202.19 337.927 202.04 337.347 201.94C336.767 201.84 336.127 201.74 335.427 201.64C334.747 201.54 334.057 201.41 333.357 201.25C332.657 201.07 332.017 200.81 331.437 200.47C330.857 200.13 330.387 199.67 330.027 199.09C329.687 198.51 329.517 197.76 329.517 196.84C329.517 195.82 329.807 194.92 330.387 194.14C330.987 193.36 331.847 192.75 332.967 192.31C334.087 191.85 335.427 191.62 336.987 191.62C338.087 191.62 339.207 191.74 340.347 191.98C341.487 192.22 342.437 192.57 343.197 193.03L341.637 196.36C340.857 195.9 340.067 195.59 339.267 195.43C338.487 195.25 337.727 195.16 336.987 195.16C335.947 195.16 335.187 195.3 334.707 195.58C334.227 195.86 333.987 196.22 333.987 196.66C333.987 197.06 334.157 197.36 334.497 197.56C334.857 197.76 335.327 197.92 335.907 198.04C336.487 198.16 337.117 198.27 337.797 198.37C338.497 198.45 339.197 198.58 339.897 198.76C340.597 198.94 341.227 199.2 341.787 199.54C342.367 199.86 342.837 200.31 343.197 200.89C343.557 201.45 343.737 202.19 343.737 203.11C343.737 204.11 343.437 205 342.837 205.78C342.237 206.54 341.367 207.14 340.227 207.58C339.107 208.02 337.737 208.24 336.117 208.24ZM361.721 208.24C359.821 208.24 358.341 207.76 357.281 206.8C356.221 205.82 355.691 204.37 355.691 202.45V188.29H360.371V202.39C360.371 203.07 360.551 203.6 360.911 203.98C361.271 204.34 361.761 204.52 362.381 204.52C363.121 204.52 363.751 204.32 364.271 203.92L365.531 207.22C365.051 207.56 364.471 207.82 363.791 208C363.131 208.16 362.441 208.24 361.721 208.24ZM353.201 195.82V192.22H364.391V195.82H353.201ZM377.968 191.62C379.248 191.62 380.388 191.88 381.388 192.4C382.408 192.9 383.208 193.68 383.788 194.74C384.368 195.78 384.658 197.12 384.658 198.76V208H379.978V199.48C379.978 198.18 379.688 197.22 379.108 196.6C378.548 195.98 377.748 195.67 376.708 195.67C375.968 195.67 375.298 195.83 374.698 196.15C374.118 196.45 373.658 196.92 373.318 197.56C372.998 198.2 372.838 199.02 372.838 200.02V208H368.158V185.74H372.838V196.33L371.788 194.98C372.368 193.9 373.198 193.07 374.278 192.49C375.358 191.91 376.588 191.62 377.968 191.62ZM397.027 208.24C395.187 208.24 393.567 207.88 392.167 207.16C390.787 206.44 389.717 205.46 388.957 204.22C388.197 202.96 387.817 201.53 387.817 199.93C387.817 198.31 388.187 196.88 388.927 195.64C389.687 194.38 390.717 193.4 392.017 192.7C393.317 191.98 394.787 191.62 396.427 191.62C398.007 191.62 399.427 191.96 400.687 192.64C401.967 193.3 402.977 194.26 403.717 195.52C404.457 196.76 404.827 198.25 404.827 199.99C404.827 200.17 404.817 200.38 404.797 200.62C404.777 200.84 404.757 201.05 404.737 201.25H391.627V198.52H402.277L400.477 199.33C400.477 198.49 400.307 197.76 399.967 197.14C399.627 196.52 399.157 196.04 398.557 195.7C397.957 195.34 397.257 195.16 396.457 195.16C395.657 195.16 394.947 195.34 394.327 195.7C393.727 196.04 393.257 196.53 392.917 197.17C392.577 197.79 392.407 198.53 392.407 199.39V200.11C392.407 200.99 392.597 201.77 392.977 202.45C393.377 203.11 393.927 203.62 394.627 203.98C395.347 204.32 396.187 204.49 397.147 204.49C398.007 204.49 398.757 204.36 399.397 204.1C400.057 203.84 400.657 203.45 401.197 202.93L403.687 205.63C402.947 206.47 402.017 207.12 400.897 207.58C399.777 208.02 398.487 208.24 397.027 208.24ZM426.249 191.62C427.529 191.62 428.669 191.88 429.669 192.4C430.689 192.9 431.489 193.68 432.069 194.74C432.649 195.78 432.939 197.12 432.939 198.76V208H428.259V199.48C428.259 198.18 427.969 197.22 427.389 196.6C426.829 195.98 426.029 195.67 424.989 195.67C424.249 195.67 423.579 195.83 422.979 196.15C422.399 196.45 421.939 196.92 421.599 197.56C421.279 198.2 421.119 199.02 421.119 200.02V208H416.439V191.86H420.909V196.33L420.069 194.98C420.649 193.9 421.479 193.07 422.559 192.49C423.639 191.91 424.869 191.62 426.249 191.62ZM445.309 208.24C443.469 208.24 441.849 207.88 440.449 207.16C439.069 206.44 437.999 205.46 437.239 204.22C436.479 202.96 436.099 201.53 436.099 199.93C436.099 198.31 436.469 196.88 437.209 195.64C437.969 194.38 438.999 193.4 440.299 192.7C441.599 191.98 443.069 191.62 444.709 191.62C446.289 191.62 447.709 191.96 448.969 192.64C450.249 193.3 451.259 194.26 451.999 195.52C452.739 196.76 453.109 198.25 453.109 199.99C453.109 200.17 453.099 200.38 453.079 200.62C453.059 200.84 453.039 201.05 453.019 201.25H439.909V198.52H450.559L448.759 199.33C448.759 198.49 448.589 197.76 448.249 197.14C447.909 196.52 447.439 196.04 446.839 195.7C446.239 195.34 445.539 195.16 444.739 195.16C443.939 195.16 443.229 195.34 442.609 195.7C442.009 196.04 441.539 196.53 441.199 197.17C440.859 197.79 440.689 198.53 440.689 199.39V200.11C440.689 200.99 440.879 201.77 441.259 202.45C441.659 203.11 442.209 203.62 442.909 203.98C443.629 204.32 444.469 204.49 445.429 204.49C446.289 204.49 447.039 204.36 447.679 204.1C448.339 203.84 448.939 203.45 449.479 202.93L451.969 205.63C451.229 206.47 450.299 207.12 449.179 207.58C448.059 208.02 446.769 208.24 445.309 208.24ZM462.824 208.24C460.924 208.24 459.444 207.76 458.384 206.8C457.324 205.82 456.794 204.37 456.794 202.45V188.29H461.474V202.39C461.474 203.07 461.654 203.6 462.014 203.98C462.374 204.34 462.864 204.52 463.484 204.52C464.224 204.52 464.854 204.32 465.374 203.92L466.634 207.22C466.154 207.56 465.574 207.82 464.894 208C464.234 208.16 463.544 208.24 462.824 208.24ZM454.304 195.82V192.22H465.494V195.82H454.304ZM472.659 208L466.839 191.86H471.249L476.079 205.75H473.979L479.019 191.86H482.979L487.869 205.75H485.769L490.749 191.86H494.889L489.039 208H484.509L480.219 196.09H481.599L477.159 208H472.659ZM504.305 208.24C502.585 208.24 501.055 207.88 499.715 207.16C498.395 206.44 497.345 205.46 496.565 204.22C495.805 202.96 495.425 201.53 495.425 199.93C495.425 198.31 495.805 196.88 496.565 195.64C497.345 194.38 498.395 193.4 499.715 192.7C501.055 191.98 502.585 191.62 504.305 191.62C506.005 191.62 507.525 191.98 508.865 192.7C510.205 193.4 511.255 194.37 512.015 195.61C512.775 196.85 513.155 198.29 513.155 199.93C513.155 201.53 512.775 202.96 512.015 204.22C511.255 205.46 510.205 206.44 508.865 207.16C507.525 207.88 506.005 208.24 504.305 208.24ZM504.305 204.4C505.085 204.4 505.785 204.22 506.405 203.86C507.025 203.5 507.515 202.99 507.875 202.33C508.235 201.65 508.415 200.85 508.415 199.93C508.415 198.99 508.235 198.19 507.875 197.53C507.515 196.87 507.025 196.36 506.405 196C505.785 195.64 505.085 195.46 504.305 195.46C503.525 195.46 502.825 195.64 502.205 196C501.585 196.36 501.085 196.87 500.705 197.53C500.345 198.19 500.165 198.99 500.165 199.93C500.165 200.85 500.345 201.65 500.705 202.33C501.085 202.99 501.585 203.5 502.205 203.86C502.825 204.22 503.525 204.4 504.305 204.4ZM516.283 208V191.86H520.753V196.42L520.123 195.1C520.603 193.96 521.373 193.1 522.433 192.52C523.493 191.92 524.783 191.62 526.303 191.62V195.94C526.103 195.92 525.923 195.91 525.763 195.91C525.603 195.89 525.433 195.88 525.253 195.88C523.973 195.88 522.933 196.25 522.133 196.99C521.353 197.71 520.963 198.84 520.963 200.38V208H516.283ZM532.985 204.7L533.105 199L540.635 191.86H546.215L538.985 199.21L536.555 201.19L532.985 204.7ZM529.115 208V185.74H533.795V208H529.115ZM541.145 208L535.685 201.22L538.625 197.59L546.815 208H541.145Z" fill="white" fill-opacity="0.93"/>
<circle cx="24.5" cy="16.5" r="5.5" fill="white"/>
<circle cx="41.5" cy="16.5" r="5.5" fill="white"/>
<circle cx="58.5" cy="16.5" r="5.5" fill="white"/>
<path d="M347.602 117.801C347.602 113.231 346.701 108.705 344.953 104.483C343.204 100.261 340.64 96.4245 337.409 93.1929C334.177 89.9614 330.341 87.398 326.118 85.6491C321.896 83.9001 317.371 83 312.801 83C308.231 83 303.705 83.9001 299.483 85.6491C295.261 87.398 291.424 89.9614 288.193 93.1929C284.961 96.4245 282.398 100.261 280.649 104.483C278.9 108.705 278 113.231 278 117.801C278 127.031 281.667 135.882 288.193 142.409C294.719 148.935 303.571 152.602 312.801 152.602C322.031 152.602 330.882 148.935 337.409 142.409C343.935 135.882 347.602 127.031 347.602 117.801ZM283.8 117.801C283.8 110.109 286.856 102.733 292.294 97.2942C297.733 91.8555 305.109 88.8001 312.801 88.8001C320.492 88.8001 327.869 91.8555 333.307 97.2942C338.746 102.733 341.801 110.109 341.801 117.801C341.801 125.492 338.746 132.869 333.307 138.307C327.869 143.746 320.492 146.801 312.801 146.801C305.109 146.801 297.733 143.746 292.294 138.307C286.856 132.869 283.8 125.492 283.8 117.801ZM307.001 110.551C307.001 111.122 306.888 111.688 306.67 112.215C306.451 112.743 306.13 113.223 305.727 113.627C305.323 114.031 304.843 114.351 304.315 114.57C303.787 114.788 303.222 114.901 302.651 114.901C302.079 114.901 301.514 114.788 300.986 114.57C300.458 114.351 299.979 114.031 299.575 113.627C299.171 113.223 298.85 112.743 298.632 112.215C298.413 111.688 298.3 111.122 298.3 110.551C298.3 109.397 298.759 108.29 299.575 107.475C300.39 106.659 301.497 106.201 302.651 106.201C303.804 106.201 304.911 106.659 305.727 107.475C306.542 108.29 307.001 109.397 307.001 110.551ZM327.301 110.551C327.301 111.704 326.843 112.811 326.027 113.627C325.211 114.442 324.105 114.901 322.951 114.901C321.797 114.901 320.691 114.442 319.875 113.627C319.059 112.811 318.601 111.704 318.601 110.551C318.601 109.397 319.059 108.29 319.875 107.475C320.691 106.659 321.797 106.201 322.951 106.201C324.105 106.201 325.211 106.659 326.027 107.475C326.843 108.29 327.301 109.397 327.301 110.551ZM301.966 134.169C307.331 127.812 318.265 127.812 323.635 134.169C323.875 134.477 324.175 134.734 324.516 134.924C324.857 135.113 325.233 135.232 325.622 135.273C326.01 135.314 326.403 135.276 326.776 135.161C327.149 135.047 327.496 134.858 327.794 134.606C328.093 134.355 328.337 134.045 328.514 133.697C328.69 133.348 328.794 132.968 328.819 132.578C328.844 132.188 328.791 131.797 328.662 131.429C328.532 131.06 328.33 130.722 328.067 130.433C320.382 121.327 305.214 121.327 297.535 130.433C297.272 130.722 297.069 131.06 296.94 131.429C296.811 131.797 296.757 132.188 296.783 132.578C296.808 132.968 296.912 133.348 297.088 133.697C297.264 134.045 297.509 134.355 297.807 134.606C298.106 134.858 298.452 135.047 298.826 135.161C299.199 135.276 299.592 135.314 299.98 135.273C300.368 135.232 300.744 135.113 301.086 134.924C301.427 134.734 301.726 134.477 301.966 134.169Z" fill="white" fill-opacity="0.93"/>
</svg>
