<svg width="34" height="34" viewBox="0 0 34 34" fill="none" xmlns="http://www.w3.org/2000/svg">
<g clip-path="url(#clip0_2041_892)">
<path d="M22.9201 18.9217L22.9201 18.0916L24.492 16.5211C25.6319 16.3486 26.8517 15.5743 27.5772 14.8488C27.9675 14.4585 27.9682 13.8256 27.5772 13.4346L20.5061 6.36351C20.1151 5.97248 19.4822 5.97318 19.0919 6.36351C18.3664 7.089 17.5914 8.30948 17.4203 9.44933L15.849 11.0206L15.019 11.0205C12.8185 11.0205 10.7494 11.8775 9.19238 13.4346C9.00429 13.6227 8.89893 13.8766 8.89963 14.1417C8.90034 14.4069 9.00499 14.6614 9.19238 14.8488L13.435 19.0914L9.89948 22.627C9.50845 23.018 9.50845 23.6501 9.89948 24.0412C10.2905 24.4322 10.9227 24.4322 11.3137 24.0412L14.8492 20.5056L19.0919 24.7483C19.4829 25.1393 20.1151 25.1393 20.5061 24.7483C22.0631 23.1912 22.9201 21.1222 22.9201 18.9217ZM11.3702 14.1968C12.4259 13.4325 13.691 13.0203 15.0189 13.0203L16.2634 13.0202C16.5293 13.0202 16.7832 12.9149 16.9706 12.7275L19.0919 10.6048C19.28 10.4167 19.3853 10.1628 19.3846 9.89762C19.3846 9.55962 19.5854 9.05193 19.8853 8.5711L25.3696 14.0554C24.888 14.3545 24.3811 14.556 24.0417 14.556C23.7758 14.556 23.5226 14.6607 23.3345 14.8488L21.2132 16.9701C21.0251 17.1582 20.9197 17.4121 20.9204 17.6773L20.9204 18.9217C20.9204 20.2497 20.5075 21.5154 19.7431 22.5711L11.3702 14.1968Z" fill="white"/>
</g>
<defs>
<clipPath id="clip0_2041_892">
<rect x="16.9707" width="24" height="24" rx="2" transform="rotate(45 16.9707 0)" fill="white"/>
</clipPath>
</defs>
</svg>
