<svg width="34" height="34" viewBox="0 0 34 34" fill="none" xmlns="http://www.w3.org/2000/svg">
<path fill-rule="evenodd" clip-rule="evenodd" d="M13.3558 7.15159C16.6629 3.98593 22.0103 3.98593 25.3174 7.15159C28.6454 10.3372 28.6454 15.5179 25.3174 18.7034L16.385 27.2537C14.0361 29.5021 10.2424 29.5021 7.89354 27.2537C5.52385 24.9853 5.52385 21.2918 7.89354 19.0235L16.6974 10.5963C18.088 9.26512 20.3281 9.26512 21.7188 10.5963C23.1302 11.9473 23.1302 14.1537 21.7188 15.5048L12.8507 23.9935C12.5144 24.3154 11.9808 24.3037 11.6589 23.9674C11.337 23.6312 11.3487 23.0976 11.685 22.7757L20.5531 14.287C21.2711 13.5997 21.2711 12.5013 20.5531 11.8141C19.8143 11.1069 18.6019 11.1069 17.8631 11.8141L9.05922 20.2412C7.38298 21.8458 7.38298 24.4313 9.05922 26.0359C10.7563 27.6603 13.5223 27.6603 15.2194 26.0359L24.1517 17.4857C26.7862 14.9639 26.7862 10.8912 24.1517 8.36937C21.4964 5.82769 17.1767 5.82769 14.5215 8.36937L7.32416 15.2587C6.98788 15.5806 6.45432 15.569 6.13243 15.2327C5.81054 14.8964 5.8222 14.3629 6.15848 14.041L13.3558 7.15159Z" fill="#02040F"/>
</svg>
