<svg width="25" height="24" viewBox="0 0 25 24" fill="none" xmlns="http://www.w3.org/2000/svg">
<g clip-path="url(#clip0_88_624)">
<path fill-rule="evenodd" clip-rule="evenodd" d="M2.48884 4.06795L3.72189 10.8743H11.33C11.9772 10.8743 12.5019 11.378 12.5019 11.9993C12.5019 12.6206 11.9772 13.1243 11.33 13.1243H3.72189L2.48884 19.9307L21.7665 11.9993L2.48884 4.06795ZM1.54676 11.9993L0.101331 4.02058C-0.0155204 3.37556 0.201889 2.7163 0.684121 2.25335C1.29004 1.67168 2.20381 1.50274 2.99142 1.82678L23.9326 10.4426C24.5812 10.7095 25.0018 11.3218 25.0018 11.9993C25.0018 12.6768 24.5812 13.2892 23.9326 13.5561L2.99142 22.1718C2.20381 22.496 1.29004 22.3269 0.684121 21.7454C0.201889 21.2823 -0.0155207 20.6231 0.101331 19.9781L1.54676 11.9993Z" fill="#1E1E1E"/>
</g>
<defs>
<clipPath id="clip0_88_624">
<rect width="25" height="24" fill="white"/>
</clipPath>
</defs>
</svg>
