<svg width="24" height="24" viewBox="0 0 24 24" fill="none" xmlns="http://www.w3.org/2000/svg">
<path d="M11.0512 4.89767H7.29396C5.79093 4.89767 5.03941 4.89767 4.46534 5.19018C3.96036 5.44748 3.54981 5.85804 3.29251 6.36301C3 6.93709 3 7.68861 3 9.19162V16.7061C3 18.209 3 18.9606 3.29251 19.5347C3.54981 20.0396 3.96036 20.4502 4.46534 20.7075C5.03941 21 5.79093 21 7.29396 21H14.8084C16.3114 21 17.0629 21 17.637 20.7075C18.142 20.4502 18.5525 20.0396 18.8098 19.5347C19.1023 18.9606 19.1023 18.209 19.1023 16.7061V12.9488M8.36742 15.6326H9.86543C10.303 15.6326 10.5219 15.6326 10.7278 15.5831C10.9103 15.5393 11.0848 15.467 11.2449 15.3689C11.4255 15.2583 11.5802 15.1035 11.8897 14.7941L20.4442 6.23953C21.1853 5.49845 21.1853 4.29691 20.4442 3.55581C19.7031 2.81473 18.5015 2.81472 17.7605 3.55581L9.20587 12.1104C8.89644 12.4198 8.74172 12.5746 8.63107 12.7551C8.53298 12.9152 8.46069 13.0897 8.41685 13.2722C8.36742 13.4782 8.36742 13.697 8.36742 14.1346V15.6326Z" stroke="white" stroke-width="2" stroke-linecap="round" stroke-linejoin="round"/>
</svg>
