<svg width="24" height="24" viewBox="0 0 24 24" fill="none" xmlns="http://www.w3.org/2000/svg">
<path d="M17.587 9.17297L17 8.58606L17.001 6.36401C17.685 5.43601 18 4.026 18 3C18 2.448 17.553 2 17 2H7C6.447 2 6 2.448 6 3C6 4.026 6.315 5.43701 7 6.36401V8.58606L6.41302 9.17297C4.85702 10.729 4 12.798 4 15C4 15.266 4.10503 15.52 4.29303 15.707C4.48103 15.894 4.735 16 5 16H11V21C11 21.553 11.447 22 12 22C12.553 22 13 21.553 13 21V16H19C19.553 16 20 15.553 20 15C20 12.798 19.143 10.729 17.587 9.17297ZM6.07898 13.999C6.28498 12.712 6.88803 11.526 7.82703 10.587L8.70697 9.70703C8.89497 9.51903 9 9.265 9 9L8.99902 5.99902C8.99902 5.73302 8.89399 5.47899 8.70599 5.29199C8.46699 5.05299 8.25001 4.552 8.12201 4H15.878C15.749 4.552 15.533 5.05297 15.293 5.29297C15.105 5.48097 15 5.734 15 6V9C15 9.266 15.105 9.52003 15.293 9.70703L16.173 10.587C17.112 11.526 17.715 12.713 17.921 14L6.07898 13.999Z" fill="white"/>
</svg>
