<svg width="38" height="38" viewBox="0 0 38 38" fill="none" xmlns="http://www.w3.org/2000/svg">
<path d="M24.8707 15.3688L21.2401 18.9993L24.8707 22.6299C25.4898 23.249 25.4898 24.2497 24.8707 24.8688C24.5619 25.1776 24.1566 25.3327 23.7513 25.3327C23.346 25.3327 22.9407 25.1776 22.6319 24.8688L19.0013 21.2381L15.3707 24.8688C15.0619 25.1776 14.6566 25.3327 14.2513 25.3327C13.846 25.3327 13.4407 25.1776 13.1319 24.8688C12.5128 24.2497 12.5128 23.249 13.1319 22.6299L16.7625 18.9993L13.1319 15.3688C12.5128 14.7497 12.5128 13.749 13.1319 13.1299C13.751 12.5108 14.7516 12.5108 15.3707 13.1299L19.0013 16.7606L22.6319 13.1299C23.251 12.5108 24.2516 12.5108 24.8707 13.1299C25.4898 13.749 25.4898 14.7497 24.8707 15.3688ZM34.8346 14.2493V23.7493C34.8346 29.8594 29.863 34.8327 23.7513 34.8327H14.2513C8.13964 34.8327 3.16797 29.8594 3.16797 23.7493V14.2493C3.16797 8.13927 8.13964 3.16602 14.2513 3.16602H23.7513C29.863 3.16602 34.8346 8.13927 34.8346 14.2493ZM31.668 14.2493C31.668 9.8841 28.1166 6.33268 23.7513 6.33268H14.2513C9.88605 6.33268 6.33464 9.8841 6.33464 14.2493V23.7493C6.33464 28.1146 9.88605 31.666 14.2513 31.666H23.7513C28.1166 31.666 31.668 28.1146 31.668 23.7493V14.2493Z" fill="white"/>
</svg>
