<svg width="25" height="25" viewBox="0 0 25 25" fill="none" xmlns="http://www.w3.org/2000/svg">
<path d="M23.75 3.75H19.3012C18.7625 3.75 18.2863 3.40752 18.115 2.89627L17.72 1.70868C17.3788 0.687429 16.425 0 15.3487 0H9.64996C8.57246 0 7.61875 0.687552 7.27875 1.71005L6.88377 2.89505C6.71377 3.4063 6.23623 3.75 5.69748 3.75H1.25C0.56 3.75 0 4.30875 0 5C0 5.69125 0.56 6.25 1.25 6.25H2.58125L3.51997 20.3325C3.69372 22.95 5.88501 25 8.50876 25H16.4925C19.1162 25 21.3075 22.9487 21.4812 20.3325L22.42 6.25H23.75C24.44 6.25 25 5.69125 25 5C25 4.30875 24.44 3.75 23.75 3.75ZM9.65126 2.5L15.35 2.49878L15.745 3.68622C15.7525 3.70872 15.7637 3.7275 15.7725 3.75H9.22997C9.23746 3.7275 9.25001 3.7075 9.25751 3.685L9.65126 2.5ZM18.9863 20.1663C18.8988 21.4751 17.8037 22.5 16.4912 22.5H8.50754C7.19629 22.5 6.1 21.4751 6.0125 20.1663L5.08621 6.25H5.69878C5.83253 6.25 5.96372 6.23247 6.09497 6.21872C6.14872 6.22622 6.19497 6.25 6.25122 6.25H18.7512C18.8062 6.25 18.8537 6.22497 18.9075 6.21872C19.0387 6.23247 19.1687 6.25 19.3037 6.25H19.9162L18.9863 20.1663ZM16.25 11.25V17.5C16.25 18.1912 15.69 18.75 15 18.75C14.31 18.75 13.75 18.1912 13.75 17.5V11.25C13.75 10.5588 14.31 10 15 10C15.69 10 16.25 10.5588 16.25 11.25ZM11.25 11.25V17.5C11.25 18.1912 10.69 18.75 10 18.75C9.31 18.75 8.75 18.1912 8.75 17.5V11.25C8.75 10.5588 9.31 10 10 10C10.69 10 11.25 10.5588 11.25 11.25Z" fill="white"/>
</svg>
