<svg width="15" height="15" viewBox="0 0 15 15" fill="none" xmlns="http://www.w3.org/2000/svg">
<g clip-path="url(#clip0_117_869)">
<path d="M14.8171 0.183236C14.6999 0.0660663 14.541 0.000244141 14.3752 0.000244141C14.2095 0.000244141 14.0506 0.0660663 13.9334 0.183236L7.50023 6.61636L1.06711 0.183236C0.949903 0.0660663 0.79096 0.000244141 0.625233 0.000244141C0.459505 0.000244141 0.300563 0.0660663 0.183358 0.183236V0.183236C0.0661883 0.30044 0.000366211 0.459383 0.000366211 0.625111C0.000366211 0.790838 0.0661883 0.949781 0.183358 1.06699L6.61648 7.50011L0.183358 13.9332C0.0661883 14.0504 0.000366211 14.2094 0.000366211 14.3751C0.000366211 14.5408 0.0661883 14.6998 0.183358 14.817V14.817C0.300563 14.9342 0.459505 15 0.625233 15C0.79096 15 0.949903 14.9342 1.06711 14.817L7.50023 8.38386L13.9334 14.817C14.0506 14.9342 14.2095 15 14.3752 15C14.541 15 14.6999 14.9342 14.8171 14.817C14.9343 14.6998 15.0001 14.5408 15.0001 14.3751C15.0001 14.2094 14.9343 14.0504 14.8171 13.9332L8.38398 7.50011L14.8171 1.06699C14.9343 0.949781 15.0001 0.790838 15.0001 0.625111C15.0001 0.459383 14.9343 0.30044 14.8171 0.183236V0.183236Z" fill="white"/>
</g>
<defs>
<clipPath id="clip0_117_869">
<rect width="15" height="15" fill="white"/>
</clipPath>
</defs>
</svg>
